<?xml version="1.0" encoding="UTF-8"?>
<!DOCTYPE svg PUBLIC "-//W3C//DTD SVG 1.1//EN" "http://www.w3.org/Graphics/SVG/1.1/DTD/svg11.dtd">
<!-- Creator: CorelDRAW X8 -->
<svg xmlns="http://www.w3.org/2000/svg" xml:space="preserve" width="1.50992in" height="0.331969in" version="1.1" style="shape-rendering:geometricPrecision; text-rendering:geometricPrecision; image-rendering:optimizeQuality; fill-rule:evenodd; clip-rule:evenodd"
viewBox="0 0 376 83"
 xmlns:xlink="http://www.w3.org/1999/xlink">
 <defs>
  <style type="text/css">
   <![CDATA[
    .fil2 {fill:#147AFF}
    .fil3 {fill:#147AFF}
    .fil0 {fill:#FEFEFE;fill-rule:nonzero}
    .fil1 {fill:#147AFF;fill-rule:nonzero}
   ]]>
  </style>
 </defs>
 <g id="Layer_x0020_1">
  <metadata id="CorelCorpID_0Corel-Layer"/>
  <path class="fil0" d="M199 76l0 -12 4 0 2 8 2 -8 4 0 0 12 -2 0 0 -9 -3 9 -2 0 -2 -9 0 9 -3 0zm31 0l-3 0 -1 -3 -5 0 -1 3 -2 0 4 -12 3 0 5 12zm-5 -5l-2 -4 -1 4 3 0zm11 5l0 -12 5 0c2,0 2,0 3,0 1,0 1,1 1,1 1,1 1,2 1,2 0,1 0,2 -1,3 0,0 -1,1 -2,1 0,0 1,0 1,1 0,0 1,1 1,2l2 2 -3 0 -2 -3c0,-1 -1,-1 -1,-1 0,-1 0,-1 -1,-1 0,0 0,0 -1,0l0 0 0 5 -3 0zm3 -7l1 0c2,0 2,0 3,0 0,0 0,0 0,-1 0,0 0,0 0,-1 0,0 0,0 0,-1 0,0 0,0 -1,0 0,0 -1,0 -2,0l-1 0 0 3zm14 7l0 -12 3 0 0 12 -3 0zm13 0l0 -10 -4 0 0 -2 10 0 0 2 -4 0 0 10 -2 0zm13 0l0 -12 2 0 0 12 -2 0zm10 0l0 -12 3 0 2 8 3 -8 3 0 0 12 -2 0 0 -9 -2 9 -3 0 -2 -9 0 9 -2 0zm19 0l0 -12 9 0 0 2 -7 0 0 3 6 0 0 2 -6 0 0 3 7 0 0 2 -9 0zm38 -4l2 0c0,2 0,3 -1,3 -1,1 -2,1 -4,1 -1,0 -2,0 -4,-1 -1,-1 -1,-3 -1,-5 0,-2 0,-4 2,-5 1,-1 2,-1 4,-1 1,0 2,0 3,1 1,1 1,1 1,2l-2 1c0,-1 0,-1 -1,-2 0,0 -1,0 -2,0 0,0 -1,0 -2,1 0,0 -1,1 -1,3 0,1 1,3 1,3 1,1 2,1 2,1 1,0 2,0 2,0 1,-1 1,-2 1,-2zm9 -2c0,-1 0,-2 1,-3 0,-1 0,-1 1,-2 0,0 1,-1 1,-1 1,0 2,0 3,0 2,0 3,0 4,1 1,1 2,3 2,5 0,2 -1,4 -2,5 -1,1 -2,1 -4,1 -2,0 -3,0 -4,-1 -1,-1 -2,-3 -2,-5zm3 0c0,1 0,2 1,3 0,1 1,1 2,1 1,0 2,0 3,-1 0,-1 0,-2 0,-3 0,-1 0,-2 0,-3 -1,-1 -2,-1 -3,-1 -1,0 -2,0 -2,1 -1,1 -1,2 -1,3zm16 6l0 -2 2 0 0 2 -2 0z"/>
  <polygon class="fil0" points="219,8 228,39 237,8 258,8 258,59 242,59 242,39 243,28 235,59 222,59 213,27 214,39 214,59 199,59 199,8 "/>
  <path class="fil1" d="M293 42l0 -10c3,0 7,2 11,0 4,-2 8,1 12,0l0 27 -10 0 -2 -5c-1,1 -2,2 -3,3 -1,1 -2,1 -4,2 -1,0 -2,0 -3,1 -2,0 -3,0 -5,0 -5,0 -10,-1 -13,-4 -4,-2 -7,-6 -9,-10 -2,-4 -3,-8 -3,-13 0,-3 0,-7 1,-10 1,-3 3,-6 5,-8 3,-3 5,-5 9,-6 3,-2 7,-3 11,-3 3,0 5,1 6,1 2,0 4,1 7,2 2,1 5,2 7,4 2,2 3,4 4,5 1,2 1,3 1,4 1,1 1,2 1,3l-17 0c0,-2 -1,-3 -3,-4 -1,-1 -3,-2 -6,-2 -1,0 -3,1 -4,2 -2,2 -3,3 -4,6 -1,2 -1,4 -1,7 0,3 1,6 3,9 1,3 4,4 7,4 5,0 8,-2 10,-5l-8 0z"/>
  <path class="fil0" d="M324 8l26 0c4,0 7,0 9,1 3,1 5,3 7,4 2,2 3,4 4,5 1,2 1,3 1,4 1,2 1,3 1,4 0,2 -1,4 -1,6 -1,2 -3,4 -4,6 -2,1 -4,3 -7,4 -3,1 -6,1 -9,1l-10 0 0 16 -17 0 0 -51zm17 12l0 10 9 0c1,0 3,0 3,-1 1,-1 2,-2 2,-4 0,-1 0,-2 -1,-2 0,-1 -1,-2 -2,-2 -1,-1 -2,-1 -3,-1l-8 0z"/>
  <path class="fil2" d="M342 17l0 3 -5 2 0 2 0 0 0 0 0 1 0 -1c4,6 7,9 11,10l0 0c0,0 0,0 0,0 0,0 0,0 0,0l0 0c4,-1 7,-4 10,-10l0 0 0 -2 -5 -2 0 -3 -2 -1 0 -2 -2 -1 0 -3 -2 0 0 3 -2 1 0 2 -3 1zm5 1l1 -1 0 4 -1 0 0 -3zm-4 5c0,0 -1,0 -2,0l2 0z"/>
  <g id="_717522040">
   <path class="fil3" d="M97 62c43,0 80,9 97,21 -22,-9 -57,-15 -97,-15 -40,0 -75,6 -97,15 17,-12 54,-21 97,-21z"/>
   <path class="fil3" d="M97 0c3,0 6,2 6,5 0,2 -1,5 -3,6l0 5 -6 0 0 -5c-1,-1 -3,-4 -3,-6 0,-3 3,-5 6,-5z"/>
   <path class="fil3" d="M98 1c0,0 0,0 0,0 -3,0 -5,2 -5,5 0,1 1,4 3,5l0 5 -1 0 0 -5c-2,-1 -3,-4 -3,-5 0,-3 3,-5 6,-5z"/>
   <path class="fil3" d="M97 0c3,0 6,2 6,5 0,2 -1,5 -3,6l0 5 -6 0 0 -5c-1,-1 -3,-4 -3,-6 0,-3 3,-5 6,-5z"/>
   <path class="fil3" d="M98 1c0,0 0,0 0,0 -3,0 -5,2 -5,5 0,1 1,4 3,5l0 5 -1 0 0 -5c-2,-1 -3,-4 -3,-5 0,-3 3,-5 6,-5z"/>
   <path class="fil3" d="M93 14l8 0c1,0 1,1 1,1l0 2c0,0 0,0 -1,0l-8 0c-1,0 -1,0 -1,0l0 -2c0,0 0,-1 1,-1z"/>
   <path class="fil3" d="M153 59l0 0c1,2 1,4 1,6 -3,-1 -6,-1 -10,-2 0,0 0,0 0,-1l-1 1c-6,-1 -12,-2 -19,-2l8 -3c-3,-5 -6,-9 -10,-13l-9 15c-4,0 -7,0 -10,-1l12 -19c-4,-2 -9,-4 -14,-4l0 23c-1,0 -3,0 -5,0 -1,0 -2,0 -3,0l0 -23c-5,0 -10,2 -14,4l12 19c-3,1 -6,1 -10,1l-9 -15c-4,4 -7,8 -10,13l7 3c-6,0 -12,1 -18,2l-1 -1c0,1 0,1 0,1 -3,0 -7,1 -10,2 0,-2 1,-4 1,-6l0 0c7,-25 29,-43 56,-43 27,0 49,18 56,43zm-98 -4c3,-6 7,-12 12,-16l-1 -2c-6,4 -10,10 -13,17l2 1zm72 -16c5,4 9,10 12,16l2 -1c-3,-7 -7,-13 -13,-17l-1 2zm-26 -11c7,1 13,3 19,6l1 -2c-6,-3 -13,-6 -20,-6l0 2zm-27 6c6,-3 12,-5 19,-6l0 -2c-7,0 -14,3 -20,6l1 2z"/>
   <path class="fil3" d="M139 12c2,2 3,5 1,8 -1,2 -3,3 -5,3l-3 4 -5 -3 3 -4c-1,-2 0,-5 1,-6 2,-3 5,-4 8,-2z"/>
   <path class="fil3" d="M139 13c0,0 0,0 0,0 -2,-1 -5,0 -7,2 -1,1 -1,4 0,6l-3 4 -1 -1 3 -4c-1,-2 -1,-4 0,-6 2,-2 5,-3 8,-1z"/>
   <path class="fil3" d="M139 12c2,2 3,5 1,8 -1,2 -3,3 -5,3l-3 4 -5 -3 3 -4c-1,-2 0,-5 1,-6 2,-3 5,-4 8,-2z"/>
   <path class="fil3" d="M139 13c0,0 0,0 0,0 -2,-1 -5,0 -7,2 -1,1 -1,4 0,6l-3 4 -1 -1 3 -4c-1,-2 -1,-4 0,-6 2,-2 5,-3 8,-1z"/>
   <path class="fil3" d="M127 22l7 5c0,0 1,0 0,1l0 1c-1,0 -1,0 -2,0l-7 -5c0,0 0,0 0,-1l1 -1c0,0 1,0 1,0z"/>
   <path class="fil3" d="M168 50c1,3 -1,6 -4,7 -2,1 -4,0 -6,-1l-5 2 -1 -6 4 -1c1,-2 3,-4 5,-5 3,-1 6,1 7,4z"/>
   <path class="fil3" d="M167 51c0,0 0,0 1,0 -2,-2 -4,-4 -7,-3 -2,1 -4,3 -4,5l-5 1 0 -1 4 -1c1,-2 3,-4 5,-5 2,-1 5,1 6,4z"/>
   <path class="fil3" d="M168 50c1,3 -1,6 -4,7 -2,1 -4,0 -6,-1l-5 2 -1 -6 4 -1c1,-2 3,-4 5,-5 3,-1 6,1 7,4z"/>
   <path class="fil3" d="M167 51c0,0 0,0 1,0 -2,-2 -4,-4 -7,-3 -2,1 -4,3 -4,5l-5 1 0 -1 4 -1c1,-2 3,-4 5,-5 2,-1 5,1 6,4z"/>
   <path class="fil3" d="M153 50l2 9c0,0 0,0 0,1l-2 0c0,0 -1,0 -1,-1l-2 -8c0,0 0,0 0,-1l2 0c0,0 0,0 1,0z"/>
   <path class="fil3" d="M56 12c-3,2 -4,5 -2,8 1,2 3,3 6,3l2 4 5 -3 -3 -4c1,-2 0,-5 -1,-6 -1,-3 -5,-4 -7,-2z"/>
   <path class="fil3" d="M55 13c0,0 0,0 0,0 2,-1 5,0 7,2 1,1 1,4 1,6l2 4 1 -1 -3 -4c1,-2 1,-4 0,-6 -2,-2 -5,-3 -8,-1z"/>
   <path class="fil3" d="M56 12c-3,2 -4,5 -2,8 1,2 3,3 6,3l2 4 5 -3 -3 -4c1,-2 0,-5 -1,-6 -1,-3 -5,-4 -7,-2z"/>
   <path class="fil3" d="M55 13c0,0 0,0 0,0 2,-1 5,0 7,2 1,1 1,4 1,6l2 4 1 -1 -3 -4c1,-2 1,-4 0,-6 -2,-2 -5,-3 -8,-1z"/>
   <path class="fil3" d="M67 22l-7 5c0,0 0,0 0,1l1 1c0,0 0,0 1,0l7 -5c0,0 0,0 0,-1l-1 -1c0,0 -1,0 -1,0z"/>
   <path class="fil3" d="M26 50c-1,3 1,6 4,7 2,1 5,0 6,-1l5 2 1 -6 -4 -1c-1,-2 -3,-4 -5,-5 -2,-1 -6,1 -7,4z"/>
   <path class="fil3" d="M27 51c0,0 0,0 0,0 1,-2 3,-4 6,-3 2,1 4,3 4,5l5 1 0 -1 -4 -1c-1,-2 -3,-4 -5,-5 -2,-1 -5,1 -6,4z"/>
   <path class="fil3" d="M26 50c-1,3 1,6 4,7 2,1 5,0 6,-1l5 2 1 -6 -4 -1c-1,-2 -3,-4 -5,-5 -2,-1 -6,1 -7,4z"/>
   <path class="fil3" d="M27 51c0,0 0,0 0,0 1,-2 3,-4 6,-3 2,1 4,3 4,5l5 1 0 -1 -4 -1c-1,-2 -3,-4 -5,-5 -2,-1 -5,1 -6,4z"/>
   <path class="fil3" d="M42 50l-3 9c0,0 0,0 0,1l2 0c0,0 1,0 1,-1l2 -8c1,0 0,0 0,-1l-1 0c-1,0 -1,0 -1,0z"/>
  </g>
 </g>
</svg>
